<?xml version="1.0" encoding="UTF-8"?>
<svg width="128" height="128" viewBox="0 0 128 128" fill="none" xmlns="http://www.w3.org/2000/svg">
  <!-- Background Circle -->
  <circle cx="64" cy="64" r="60" fill="url(#gradient)" />
  
  <!-- Brain Icon (adapted from Lucide) -->
  <g transform="translate(24, 24) scale(3.33)">
    <!-- Left hemisphere -->
    <path d="M12 5a3 3 0 1 0-5.997.125 4 4 0 0 0-2.526 5.77 4 4 0 0 0 .556 6.588A4 4 0 1 0 12 18Z" 
          stroke="white" 
          stroke-width="2" 
          stroke-linecap="round" 
          stroke-linejoin="round"
          fill="none" />
    
    <!-- Right hemisphere -->
    <path d="M12 5a3 3 0 1 1 5.997.125 4 4 0 0 1 2.526 5.77 4 4 0 0 1-.556 6.588A4 4 0 1 1 12 18Z" 
          stroke="white" 
          stroke-width="2" 
          stroke-linecap="round" 
          stroke-linejoin="round"
          fill="none" />
    
    <!-- Bottom curve -->
    <path d="M15 13a4.5 4.5 0 0 1-3-4 4.5 4.5 0 0 1-3 4" 
          stroke="white" 
          stroke-width="2" 
          stroke-linecap="round" 
          stroke-linejoin="round"
          fill="none" />
    
    <!-- Detail lines -->
    <path d="M17.599 6.5a3 3 0 0 0 .399-1.375M6.003 5.125A3 3 0 0 0 6.401 6.5M3.477 10.896a4 4 0 0 1 .585-.396M19.938 10.5a4 4 0 0 1 .585.396M6 18a4 4 0 0 1-1.967-.516M19.967 17.484A4 4 0 0 1 18 18" 
          stroke="white" 
          stroke-width="2" 
          stroke-linecap="round" 
          stroke-linejoin="round"
          fill="none" />
  </g>

  <!-- Neural Network Dots -->
  <circle cx="64" cy="44" r="2" fill="white" opacity="0.8" />
  <circle cx="64" cy="64" r="2" fill="white" opacity="0.8" />
  <circle cx="64" cy="84" r="2" fill="white" opacity="0.8" />
  
  <!-- Definitions -->
  <defs>
    <!-- Background gradient -->
    <linearGradient id="gradient" x1="0" y1="0" x2="128" y2="128" gradientUnits="userSpaceOnUse">
      <stop offset="0%" stop-color="#4F46E5" />
      <stop offset="100%" stop-color="#4338CA" />
    </linearGradient>
  </defs>
</svg> 